# xmcd
#
# Track frame offsets:
#	150
#	18157
#	32987
#	44483
#	64901
#	84201
#	99125
#	117641
#	135993
#	150804
#
# Disc length: 2241 seconds
#
# Revision: 2
# Processed by: cddbd v1.5.2PL0 Copyright (c) Steve Scherf et al.
# Submitted via: audiograbber 1.83.01
#
DISCID=6f08bf0a
DTITLE=casey ashley - casey
DYEAR=2003
DGENRE=
TTITLE0=the dance
TTITLE1=man in love with you
TTITLE2=fall in love
TTITLE3=one of these days
TTITLE4=one night a day
TTITLE5=is that a tear
TTITLE6=memories of us
TTITLE7=the change
TTITLE8=where the green grass grows
TTITLE9=you had me from hello
EXTD=
EXTT0=
EXTT1=
EXTT2=
EXTT3=
EXTT4=
EXTT5=
EXTT6=
EXTT7=
EXTT8=
EXTT9=
PLAYORDER=
